<svg xmlns="http://www.w3.org/2000/svg" viewBox="0 0 548.9 76.9" fill="#125fdb"><path d="M76.2 5.9H56.3L26.5 33.1l5.7-27.2H14.7L0 75.8h17.5l4.4-21.2 10.2-9 12.3 30.2H63L45.2 34.5zM140.9 29.9c0-8.4-2.5-14.7-7.4-18.8-5-4.2-11.9-6.2-20.9-6.2-12.1 0-21.5 2.9-28.3 8.6-6.8 5.7-11.6 15-14.3 27.8-.8 3.5-1.2 7.1-1.2 10.6 0 8.2 2.5 14.5 7.5 18.7 5 4.2 12 6.3 20.9 6.3 11.9 0 21.3-2.9 28.2-8.7 6.9-5.8 11.6-14.8 14.2-27 .8-4.1 1.3-7.9 1.3-11.3zm-19.2 11.3c-1.5 7.2-4 12.4-7.4 15.8-3.4 3.4-8.1 5-13.9 5-4.9 0-8.4-.9-10.6-2.6-2.1-1.7-3.2-4.6-3.2-8.7 0-2.5.4-5.7 1.2-9.5 1.7-7.7 4.2-13.2 7.5-16.5 3.4-3.3 8-4.9 14-4.9 4.8 0 8.3.8 10.5 2.5 2.1 1.7 3.2 4.6 3.2 8.7 0 2.7-.5 6.1-1.3 10.2zM206.6 5.9l-27 38.8-10.9-38.8h-16.6l-14.7 69.9h17.5l8.4-40.1 7.9 28.2h9.7l19.7-28.2-8.4 40.1h17.4l14.8-69.9zM289.5 25.1c0-5.7-1.8-10.3-5.3-13.9-3.5-3.5-8.7-5.3-15.4-5.3h-33.4l-14.7 69.8h17.5l4.3-20.5h17c8.2 0 14.7-2.1 19.7-6.4 5-4.3 8.2-10.3 9.8-18 .4-1.6.5-3.5.5-5.7zm-18.2 5.7c-.7 3.5-2.1 6.3-4.2 8.2-2.1 1.9-5.2 2.9-9.2 2.9h-12.6l4.8-22.4h13.1c3.1 0 5.3.5 6.7 1.6 1.3 1.1 2 2.8 2 5.2 0 1-.2 2.5-.6 4.5zM342.7 34h-30.1l3.2-14.6h34l2.9-13.5h-51.6l-14.7 69.9h51.5l2.8-13.5h-34l3.1-14.5h50.5l3-13.8h-20.6zM543.5 10.8c-3.6-3.3-8.3-4.9-14.3-4.9h-34.9L488.2 35l13.7 9.7-17.1 6.3-5.2 24.8h17.5l4.7-22.1h8c1.9 0 3.2.3 4.1.9.8.6 1.4 1.8 1.8 3.4l4.1 17.8H538l-4.3-18.9c-.4-1.8-.8-3.2-1.2-4.1-.4-.9-1-1.8-1.7-2.6 4.5-1.7 8.3-4.4 11.4-8 3.1-3.6 5.2-7.7 6.1-12.3.4-2.1.7-4 .7-5.9-.1-5.5-1.9-9.9-5.5-13.2zm-13 19.1c-.7 3.4-2.2 6-4.4 7.7-2.2 1.7-5.1 2.6-8.6 2.6h-12.9l4.4-20.8h13.7c3 0 5.2.5 6.5 1.5 1.3 1 1.9 2.5 1.9 4.6-.1 1-.3 2.5-.6 4.4z"/><path d="M438.9 47.8h26.9l-.9 4.7 26-9.5-21.2-15.1-1.2 6.1h-26.7l3.1-14.6H479l2.8-13.5h-51.2l15.3 10.9-19.4 7.1-2.2 10.1h-23.4l-3.1 13.7h23.6l-5.9 28.1H467l2.9-13.5h-34.1z"/><path d="M408.9 24.6l26-9.5L413.7 0l-1.2 5.9h-53.7L356 19.4h20.5l-12 56.4H382l11.9-56.4h16z"/><path fill="none" d="M0 0h548.9v76.9H0z"/></svg>